<?xml version="1.0" standalone="no"?>
<!DOCTYPE svg PUBLIC "-//W3C//DTD SVG 20010904//EN"
 "http://www.w3.org/TR/2001/REC-SVG-20010904/DTD/svg10.dtd">
<svg version="1.0" xmlns="http://www.w3.org/2000/svg"
 width="211.000000pt" height="218.000000pt" viewBox="0 0 211.000000 218.000000"
 preserveAspectRatio="xMidYMid meet">

<g transform="translate(0.000000,218.000000) scale(0.100000,-0.100000)"
fill="#000000" stroke="none">
<path d="M1134 1854 l-109 -108 91 -7 c103 -8 176 -34 220 -80 15 -16 31 -29
35 -29 10 0 -37 171 -69 253 -16 40 -36 73 -45 75 -8 2 -62 -44 -123 -104z"/>
<path d="M962 1644 c-23 -37 -40 -69 -38 -71 1 -2 18 4 36 14 48 24 136 21
191 -5 81 -40 126 -151 100 -250 -16 -57 -51 -82 -116 -82 -52 0 -105 26 -105
52 0 7 10 2 23 -9 50 -46 135 -36 163 20 12 22 15 45 10 85 -7 62 -23 97 -61
132 -24 22 -35 25 -107 25 l-79 0 -39 -41 c-68 -73 -79 -173 -30 -270 42 -84
108 -124 206 -124 105 0 210 65 256 158 32 65 31 185 -1 257 -48 108 -131 158
-283 171 l-85 7 -41 -69z"/>
<path d="M544 1431 c21 -136 108 -260 194 -277 l32 -6 0 63 c0 119 -77 213
-209 254 -23 7 -24 6 -17 -34z"/>
<path d="M1631 1220 c-89 -24 -149 -57 -190 -107 -31 -37 -50 -100 -43 -139
l4 -22 43 24 c23 14 76 36 116 49 123 42 169 85 177 167 5 57 5 57 -107 28z"/>
<path d="M855 1165 c16 -145 121 -435 157 -435 25 0 151 104 205 169 53 64
143 227 143 259 0 12 -7 10 -27 -10 -61 -57 -110 -73 -218 -73 -91 0 -104 2
-147 28 -26 15 -60 44 -75 65 -44 61 -45 60 -38 -3z"/>
<path d="M286 1128 c40 -254 232 -410 521 -425 l113 -6 -21 74 c-27 98 -62
160 -131 235 -97 104 -247 164 -410 164 l-78 0 6 -42z"/>
<path d="M121 883 c-45 -23 -91 -96 -91 -145 0 -72 65 -160 142 -192 39 -16
124 -20 168 -7 17 5 3 8 -42 8 -87 -1 -148 30 -195 97 -47 69 -46 115 5 167
47 46 79 55 138 39 49 -14 104 -67 104 -101 0 -35 -27 -87 -49 -94 -33 -10
-77 4 -111 35 -36 34 -39 72 -8 94 12 9 18 16 12 16 -50 0 -65 -81 -23 -126
83 -89 197 -64 214 48 15 97 -55 169 -169 175 -43 3 -71 -1 -95 -14z"/>
<path d="M1421 835 c-70 -16 -194 -55 -189 -60 2 -2 37 5 78 16 48 13 122 23
207 26 248 11 353 -33 421 -176 21 -45 25 -70 26 -140 0 -106 -22 -160 -95
-225 -64 -57 -129 -79 -219 -74 -91 5 -151 41 -194 118 -27 48 -31 65 -31 130
0 61 5 83 25 120 30 54 75 86 132 94 127 18 205 -56 207 -197 1 -52 -2 -62
-28 -88 -24 -23 -38 -29 -73 -29 -24 0 -56 7 -73 15 l-30 15 24 -20 c35 -30
121 -31 160 -2 38 28 52 76 45 152 -7 93 -40 145 -111 177 -106 49 -229 16
-287 -75 -94 -150 -40 -364 109 -438 164 -80 368 -10 460 158 28 49 30 60 30
158 0 99 -2 110 -33 172 -43 88 -104 142 -190 168 -78 24 -270 26 -371 5z"/>
<path d="M1200 677 c-19 -7 -44 -18 -55 -25 -19 -11 -18 -11 7 -12 18 0 33 -9
44 -25 20 -31 87 -51 121 -36 29 13 29 43 1 75 -28 32 -72 40 -118 23z"/>
<path d="M694 625 c-63 -17 -150 -58 -187 -88 l-28 -23 42 -33 c51 -42 78
-100 79 -168 0 -64 6 -65 95 -23 119 57 198 147 236 272 16 49 17 63 7 70 -21
13 -188 8 -244 -7z"/>
<path d="M1192 512 c39 -37 53 -59 64 -101 18 -70 3 -143 -36 -183 -24 -24
-37 -28 -83 -28 -46 0 -61 5 -88 27 -61 52 -76 131 -34 181 33 40 79 50 107
25 66 -59 60 -155 -10 -166 -25 -4 -25 -4 5 -6 64 -2 93 72 59 152 -20 48 -50
70 -96 70 -51 0 -110 -44 -127 -95 -25 -74 26 -185 100 -219 56 -25 103 -24
157 4 63 31 83 72 83 162 0 87 -26 142 -91 192 -63 48 -68 40 -10 -15z"/>
<path d="M407 437 c-13 -21 -12 -24 10 -41 31 -23 62 -90 63 -133 0 -34 7 -38
49 -26 23 6 23 9 18 69 -7 73 -25 114 -61 138 -35 22 -61 20 -79 -7z"/>
<path d="M332 304 l-32 -69 23 -7 c33 -9 80 -9 96 1 21 13 5 76 -27 113 l-28
30 -32 -68z"/>
</g>
</svg>
